<svg width="580" height="580" xmlns="http://www.w3.org/2000/svg">
 <!-- Created with Method Draw - http://github.com/duopixel/Method-Draw/ -->
 <g>
  <title>background</title>
  <rect fill="none" id="canvas_background" height="582" width="582" y="-1" x="-1"/>
  <g display="none" overflow="visible" y="0" x="0" height="100%" width="100%" id="canvasGrid">
   <rect fill="url(#gridpattern)" stroke-width="0" y="0" x="0" height="100%" width="100%"/>
  </g>
 </g>
 <g>
  <title>Layer 1</title>
  <rect rx="50" id="svg_9" height="183.999992" width="564" y="1.825008" x="7" stroke-width="1.5" fill="#007fff"/>
  <rect rx="50" id="svg_1" height="484.000005" width="564.000005" y="89.824987" x="7" stroke-width="1.5" fill="#fff"/>
  <rect id="svg_10" height="52.999998" width="564" y="85.825001" x="7" fill-opacity="null" stroke-width="1.5" fill="#fff"/>
  <rect stroke="#000" rx="15" id="svg_2" height="33" width="478.999991" y="119.825" x="39.500017" stroke-opacity="null" stroke-width="1.5" fill="#999999"/>
  <rect stroke="#000" rx="15" id="svg_3" height="33" width="452.000015" y="179.825" x="39.500017" stroke-opacity="null" stroke-width="1.5" fill="#999999"/>
  <rect stroke="#000" rx="15" id="svg_4" height="33" width="415.999983" y="239.825" x="39.500017" stroke-opacity="null" stroke-width="1.5" fill="#999999"/>
  <rect stroke="#000" rx="15" id="svg_5" height="33" width="393" y="299.825" x="39.500018" stroke-opacity="null" stroke-width="1.5" fill="#999999"/>
  <rect stroke="#000" rx="15" id="svg_6" height="33" width="472.999991" y="359.825" x="39.500017" stroke-opacity="null" stroke-width="1.5" fill="#999999"/>
  <rect stroke="#000" rx="15" id="svg_7" height="33" width="478.999991" y="419.825" x="39.500017" stroke-opacity="null" stroke-width="1.5" fill="#999999"/>
  <rect stroke="#000" rx="15" id="svg_8" height="33" width="478.999991" y="479.825" x="39.500017" stroke-opacity="null" stroke-width="1.5" fill="#999999"/>
 </g>
</svg>